<svg id="App_Store" data-name="App Store" xmlns="http://www.w3.org/2000/svg" width="266.494" height="78.44" viewBox="0 0 266.494 78.44">
  <g id="Group_4450" data-name="Group 4450">
    <g id="Group_4445" data-name="Group 4445">
      <rect id="Rectangle_3855" data-name="Rectangle 3855" width="264.517" height="76.462" rx="7.382" transform="translate(0.989 0.99)"/>
      <path id="Path_2607" data-name="Path 2607" d="M-314.505,202.581H-560.94a10.041,10.041,0,0,1-10.03-10.028V134.171a10.042,10.042,0,0,1,10.03-10.03h246.435a10.042,10.042,0,0,1,10.03,10.03v58.382A10.041,10.041,0,0,1-314.505,202.581ZM-560.94,126.12a8.061,8.061,0,0,0-8.052,8.051v58.382a8.061,8.061,0,0,0,8.052,8.051h246.435a8.061,8.061,0,0,0,8.052-8.051V134.171a8.061,8.061,0,0,0-8.052-8.051Z" transform="translate(570.97 -124.141)" fill="#96999c"/>
    </g>
    <g id="Group_4446" data-name="Group 4446" transform="translate(85.185 12.366)">
      <path id="Path_2608" data-name="Path 2608" d="M-497.872,144.049l-1.109,3.652h-2.427l4.129-12.884h3l4.187,12.884h-2.524l-1.166-3.652Zm3.69-1.777L-495.2,139.1c-.249-.784-.459-1.663-.65-2.408h-.038c-.191.745-.382,1.643-.612,2.408l-.993,3.174Z" transform="translate(501.409 -134.109)" fill="#fff"/>
      <path id="Path_2609" data-name="Path 2609" d="M-488.831,137.736l1.509,4.722c.268.822.459,1.566.632,2.332h.058c.171-.765.382-1.492.631-2.332l1.49-4.722h2.466l-3.556,9.31h-2.312l-3.461-9.31Z" transform="translate(503.663 -133.454)" fill="#fff"/>
      <path id="Path_2610" data-name="Path 2610" d="M-474.651,144.848a12.529,12.529,0,0,0,.153,2.236h-2.122l-.171-1.032h-.058a3.4,3.4,0,0,1-2.753,1.243,2.764,2.764,0,0,1-2.924-2.773c0-2.332,2.084-3.537,5.524-3.517v-.153c0-.612-.249-1.625-1.892-1.625a4.93,4.93,0,0,0-2.5.688l-.459-1.53a6.712,6.712,0,0,1,3.365-.822c2.982,0,3.842,1.892,3.842,3.938Zm-2.294-2.315c-1.663-.018-3.25.326-3.25,1.74a1.235,1.235,0,0,0,1.339,1.339A1.931,1.931,0,0,0-477,144.331a1.581,1.581,0,0,0,.058-.517Z" transform="translate(505.65 -133.492)" fill="#fff"/>
      <path id="Path_2611" data-name="Path 2611" d="M-472.191,137.109a1.245,1.245,0,0,1-1.3-1.261,1.256,1.256,0,0,1,1.319-1.281,1.256,1.256,0,0,1,1.319,1.281,1.251,1.251,0,0,1-1.319,1.261Zm-1.166,10.648v-9.31h2.351v9.31Z" transform="translate(507.68 -134.165)" fill="#fff"/>
      <path id="Path_2612" data-name="Path 2612" d="M-468.7,134.239h2.351v13.592H-468.7Z" transform="translate(508.756 -134.239)" fill="#fff"/>
      <path id="Path_2613" data-name="Path 2613" d="M-456.656,144.848a12.645,12.645,0,0,0,.152,2.236h-2.122l-.172-1.032h-.058a3.4,3.4,0,0,1-2.753,1.243,2.764,2.764,0,0,1-2.924-2.773c0-2.332,2.084-3.537,5.524-3.517v-.153c0-.612-.247-1.625-1.892-1.625a4.93,4.93,0,0,0-2.5.688l-.458-1.53a6.706,6.706,0,0,1,3.364-.822c2.982,0,3.843,1.892,3.843,3.938Zm-2.295-2.315c-1.663-.018-3.249.326-3.249,1.74a1.234,1.234,0,0,0,1.337,1.339,1.93,1.93,0,0,0,1.854-1.281,1.582,1.582,0,0,0,.058-.517Z" transform="translate(509.692 -133.492)" fill="#fff"/>
      <path id="Path_2614" data-name="Path 2614" d="M-455.373,134.239h2.351V139.8h.038A3.369,3.369,0,0,1-450,138.311c2.275,0,3.9,1.892,3.88,4.722,0,3.344-2.121,5.009-4.224,5.009a3.2,3.2,0,0,1-2.944-1.607h-.038l-.115,1.4h-2.007c.038-.631.077-1.663.077-2.6Zm2.351,9.749a2.536,2.536,0,0,0,.058.555,2.148,2.148,0,0,0,2.083,1.643c1.472,0,2.37-1.166,2.37-3.058,0-1.645-.783-2.982-2.351-2.982a2.184,2.184,0,0,0-2.083,1.721,2.82,2.82,0,0,0-.076.611Z" transform="translate(511.732 -134.239)" fill="#fff"/>
      <path id="Path_2615" data-name="Path 2615" d="M-445.572,134.239h2.351v13.592h-2.351Z" transform="translate(513.951 -134.239)" fill="#fff"/>
      <path id="Path_2616" data-name="Path 2616" d="M-439.1,143.089c.058,1.681,1.375,2.408,2.867,2.408a7.5,7.5,0,0,0,2.58-.42l.344,1.605a8.355,8.355,0,0,1-3.249.593c-3.021,0-4.8-1.854-4.8-4.7,0-2.58,1.568-5.009,4.551-5.009,3.02,0,4.013,2.486,4.013,4.531a6.007,6.007,0,0,1-.075.994Zm4.09-1.645a2,2,0,0,0-1.931-2.275,2.3,2.3,0,0,0-2.159,2.275Z" transform="translate(514.897 -133.492)" fill="#fff"/>
      <path id="Path_2617" data-name="Path 2617" d="M-424.037,147.295a4.5,4.5,0,0,1-4.666-4.8,4.6,4.6,0,0,1,4.819-4.933,4.466,4.466,0,0,1,4.625,4.78,4.608,4.608,0,0,1-4.76,4.951Zm.076-1.7c1.337,0,2.275-1.3,2.275-3.191,0-1.454-.65-3.136-2.256-3.136-1.663,0-2.333,1.625-2.333,3.174,0,1.8.9,3.153,2.295,3.153Z" transform="translate(517.74 -133.492)" fill="#fff"/>
      <path id="Path_2618" data-name="Path 2618" d="M-418.716,140.546c0-1.07-.038-1.969-.077-2.771h2.045l.115,1.395h.058a3.42,3.42,0,0,1,2.983-1.605c1.624,0,3.306,1.052,3.306,3.995v5.525h-2.351v-5.257c0-1.339-.5-2.351-1.778-2.351a1.972,1.972,0,0,0-1.834,1.376,2.165,2.165,0,0,0-.115.746v5.486h-2.351Z" transform="translate(519.966 -133.492)" fill="#fff"/>
      <path id="Path_2619" data-name="Path 2619" d="M-402.334,135.784v2.39h2.237v1.759h-2.237v4.091c0,1.146.306,1.719,1.205,1.719a3.043,3.043,0,0,0,.917-.1l.038,1.778a5.17,5.17,0,0,1-1.7.249,2.691,2.691,0,0,1-2.025-.765,3.663,3.663,0,0,1-.745-2.618v-4.358h-1.319v-1.759h1.319v-1.74Z" transform="translate(522.847 -133.892)" fill="#fff"/>
      <path id="Path_2620" data-name="Path 2620" d="M-399.036,134.239h2.351v5.544h.038a3.087,3.087,0,0,1,1.167-1.051,3.305,3.305,0,0,1,1.625-.421c1.586,0,3.249,1.052,3.249,4.034v5.486h-2.351v-5.238c0-1.339-.5-2.371-1.8-2.371a1.961,1.961,0,0,0-1.834,1.319,2.13,2.13,0,0,0-.1.708v5.582h-2.351Z" transform="translate(524.403 -134.239)" fill="#fff"/>
      <path id="Path_2621" data-name="Path 2621" d="M-387.651,143.089c.058,1.681,1.375,2.408,2.867,2.408a7.5,7.5,0,0,0,2.58-.42l.344,1.605a8.356,8.356,0,0,1-3.249.593c-3.021,0-4.8-1.854-4.8-4.7,0-2.58,1.568-5.009,4.551-5.009,3.02,0,4.013,2.486,4.013,4.531a6.007,6.007,0,0,1-.075.994Zm4.09-1.645a2,2,0,0,0-1.93-2.275,2.3,2.3,0,0,0-2.16,2.275Z" transform="translate(526.454 -133.492)" fill="#fff"/>
    </g>
    <g id="Group_4449" data-name="Group 4449" transform="translate(25.174 11.611)">
      <g id="Group_4447" data-name="Group 4447">
        <path id="Path_2622" data-name="Path 2622" d="M-516.113,158.233a11.465,11.465,0,0,1,5.462-9.623,11.737,11.737,0,0,0-9.252-5c-3.892-.409-7.667,2.332-9.646,2.332-2.022,0-5.081-2.29-8.368-2.224a12.325,12.325,0,0,0-10.368,6.324c-4.482,7.762-1.139,19.168,3.155,25.445,2.149,3.071,4.661,6.5,7.947,6.381,3.215-.135,4.414-2.049,8.3-2.049,3.846,0,4.974,2.049,8.326,1.972,3.45-.058,5.621-3.087,7.693-6.188a25.278,25.278,0,0,0,3.522-7.169,11.082,11.082,0,0,1-6.766-10.2" transform="translate(550.413 -131.389)" fill="#fff"/>
        <path id="Path_2623" data-name="Path 2623" d="M-526.189,141.713a11.268,11.268,0,0,0,2.583-8.091,11.484,11.484,0,0,0-7.431,3.848,10.734,10.734,0,0,0-2.654,7.791,9.5,9.5,0,0,0,7.5-3.548" transform="translate(554.156 -133.622)" fill="#fff"/>
      </g>
      <g id="Group_4448" data-name="Group 4448" transform="translate(58.606 23.324)">
        <path id="Path_2624" data-name="Path 2624" d="M-480.4,179.241h-4.477l-2.455-7.714h-8.527l-2.339,7.714h-4.362l8.456-26.253h5.214Zm-7.67-10.949-2.218-6.855q-.356-1.047-1.326-4.944h-.077q-.391,1.677-1.249,4.944l-2.181,6.855Z" transform="translate(502.556 -152.596)" fill="#fff"/>
        <path id="Path_2625" data-name="Path 2625" d="M-463.368,168.268a10.759,10.759,0,0,1-2.61,7.635,7.631,7.631,0,0,1-5.8,2.491,5.811,5.811,0,0,1-5.379-2.687h-.073v9.971h-4.21V165.269q0-3.036-.154-6.231h3.7l.235,3h.08a7.005,7.005,0,0,1,6.386-3.39,7.029,7.029,0,0,1,5.589,2.649,10.442,10.442,0,0,1,2.239,6.971m-4.284.156a7.814,7.814,0,0,0-1.247-4.558,4.309,4.309,0,0,0-3.659-1.87,4.361,4.361,0,0,0-2.824,1.032,4.8,4.8,0,0,0-1.657,2.711,5.485,5.485,0,0,0-.192,1.281v3.157a5.052,5.052,0,0,0,1.26,3.484,4.2,4.2,0,0,0,3.294,1.422,4.292,4.292,0,0,0,3.7-1.828,8.038,8.038,0,0,0,1.326-4.831" transform="translate(507.264 -151.325)" fill="#fff"/>
        <path id="Path_2626" data-name="Path 2626" d="M-445.59,168.268A10.754,10.754,0,0,1-448.2,175.9a7.626,7.626,0,0,1-5.8,2.491,5.8,5.8,0,0,1-5.372-2.687h-.078v9.971h-4.205V165.269q0-3.036-.156-6.231h3.7l.235,3h.081a6.991,6.991,0,0,1,6.385-3.39,7.032,7.032,0,0,1,5.589,2.649,10.441,10.441,0,0,1,2.236,6.971m-4.281.156a7.8,7.8,0,0,0-1.249-4.558A4.306,4.306,0,0,0-454.78,162a4.372,4.372,0,0,0-2.825,1.032,4.8,4.8,0,0,0-1.652,2.711,5.279,5.279,0,0,0-.2,1.281v3.157a5.038,5.038,0,0,0,1.264,3.484,4.186,4.186,0,0,0,3.294,1.422,4.3,4.3,0,0,0,3.7-1.828,8.081,8.081,0,0,0,1.326-4.831" transform="translate(511.258 -151.325)" fill="#fff"/>
        <path id="Path_2627" data-name="Path 2627" d="M-426.065,171.95A6.992,6.992,0,0,1-428.4,177.4a10.327,10.327,0,0,1-7.148,2.3,12.545,12.545,0,0,1-6.806-1.634l.975-3.5a11.535,11.535,0,0,0,6.083,1.673,5.749,5.749,0,0,0,3.7-1.07,3.51,3.51,0,0,0,1.321-2.868,3.665,3.665,0,0,0-1.089-2.692,10.168,10.168,0,0,0-3.627-2.03q-6.894-2.577-6.891-7.529a6.659,6.659,0,0,1,2.415-5.305,9.537,9.537,0,0,1,6.427-2.071,12.747,12.747,0,0,1,5.958,1.248l-1.049,3.428a10.366,10.366,0,0,0-5.027-1.207,5.075,5.075,0,0,0-3.464,1.091,3.128,3.128,0,0,0-1.049,2.376,3.2,3.2,0,0,0,1.2,2.568,13.594,13.594,0,0,0,3.817,2.029,12.957,12.957,0,0,1,4.985,3.191,6.694,6.694,0,0,1,1.6,4.558" transform="translate(516.078 -152.668)" fill="#fff"/>
        <path id="Path_2628" data-name="Path 2628" d="M-415.584,162.985h-4.635v9.193q0,3.5,2.457,3.5a7.572,7.572,0,0,0,1.866-.193l.115,3.194a9.478,9.478,0,0,1-3.268.465,5.042,5.042,0,0,1-3.9-1.515q-1.4-1.521-1.4-5.1v-9.545h-2.766V159.83h2.766v-3.464l4.128-1.249v4.714h4.635Z" transform="translate(519.501 -152.118)" fill="#fff"/>
        <path id="Path_2629" data-name="Path 2629" d="M-397.218,168.347a10.384,10.384,0,0,1-2.491,7.168,8.9,8.9,0,0,1-6.934,2.88,8.462,8.462,0,0,1-6.641-2.765,10.06,10.06,0,0,1-2.474-6.968,10.271,10.271,0,0,1,2.551-7.206,8.814,8.814,0,0,1,6.874-2.807,8.654,8.654,0,0,1,6.7,2.765,9.971,9.971,0,0,1,2.415,6.933m-4.365.136a8.517,8.517,0,0,0-1.13-4.491,4.15,4.15,0,0,0-3.774-2.267,4.214,4.214,0,0,0-3.858,2.267,8.691,8.691,0,0,0-1.125,4.572,8.519,8.519,0,0,0,1.125,4.489,4.243,4.243,0,0,0,3.821,2.266,4.2,4.2,0,0,0,3.773-2.3,8.52,8.52,0,0,0,1.168-4.531" transform="translate(522.052 -151.325)" fill="#fff"/>
        <path id="Path_2630" data-name="Path 2630" d="M-387.6,162.737a7.455,7.455,0,0,0-1.323-.116,3.989,3.989,0,0,0-3.43,1.676,6.314,6.314,0,0,0-1.049,3.738v9.933h-4.2L-397.57,165q0-3.273-.154-5.961h3.663l.154,3.624h.113a6.481,6.481,0,0,1,2.105-3,5.094,5.094,0,0,1,3.042-1.014,6.767,6.767,0,0,1,1.048.075Z" transform="translate(526.103 -151.325)" fill="#fff"/>
        <path id="Path_2631" data-name="Path 2631" d="M-371.01,167.613a10.134,10.134,0,0,1-.152,1.909h-12.617a5.5,5.5,0,0,0,1.828,4.287,6.247,6.247,0,0,0,4.131,1.319,13.954,13.954,0,0,0,5.1-.894l.66,2.923a15.82,15.82,0,0,1-6.35,1.171,9.182,9.182,0,0,1-6.913-2.594,9.576,9.576,0,0,1-2.512-6.952,10.849,10.849,0,0,1,2.34-7.13,8.051,8.051,0,0,1,6.617-3.036,7.061,7.061,0,0,1,6.2,3.036,10.249,10.249,0,0,1,1.667,5.96m-4.011-1.091a5.688,5.688,0,0,0-.814-3.232,3.682,3.682,0,0,0-3.354-1.754,4,4,0,0,0-3.347,1.716,6.227,6.227,0,0,0-1.243,3.27Z" transform="translate(528.324 -151.332)" fill="#fff"/>
      </g>
    </g>
  </g>
</svg>
