<svg xmlns="http://www.w3.org/2000/svg" xmlns:xlink="http://www.w3.org/1999/xlink" width="989" height="999.021" viewBox="0 0 989 999.021">
  <defs>
    <linearGradient id="linear-gradient" y1="0.5" x2="1" y2="0.5" gradientUnits="objectBoundingBox">
      <stop offset="0" stop-color="#9cc229"/>
      <stop offset="1" stop-color="#7bb62d"/>
    </linearGradient>
  </defs>
  <path id="Path_2581" data-name="Path 2581" d="M-403.611,882.1v834.171c-2.546.134-3.807,2.178-5.3,3.739-7.3,7.658-15.444,14.4-23.635,21A678.831,678.831,0,0,1-516.459,1799a633.247,633.247,0,0,1-114.414,52.479,537.034,537.034,0,0,1-89.151,22.467c-26.99,4.326-54.124,7.58-81.579,7-18.294-.389-36.566.186-54.851-2.049-15.749-1.925-31.5-3.679-47.122-6.475-25.7-4.6-50.691-11.854-75.777-18.995-27.422-7.806-53.687-17.778-78.194-32.417a196.325,196.325,0,0,1-51.365-43.655c-18.55-22.506-29.713-48.343-32.649-77.6-2.238-22.317-1.264-44.444,5.446-65.829,6.867-21.888,13.622-43.772,18.955-66.089,8.684-36.343,14.358-73.153,15.8-110.48,1.2-31.261-.041-62.443-6.519-93.247-10.112-48.091-30.288-90.577-67.38-124.064-18.361-16.575-39.172-29.014-61.687-38.922-17.085-7.52-35.187-12.372-51.718-21.5-27.055-14.937-51.354-33.042-70.924-57.043-21.022-25.783-32.585-55.362-33.007-88.743-.311-24.57,6.029-47.923,15.422-70.471,4.843-11.629,9.9-23.256,17.4-33.423,11.351-15.379,25.08-28.663,38.542-42.177,4.131-4.148,8.378-5.779,14.217-5.776Q-855.316,882.174-403.611,882.1Z" transform="translate(1392.611 -881.994)" opacity="0.27" fill="url(#linear-gradient)"/>
</svg>
