<svg xmlns="http://www.w3.org/2000/svg" xmlns:xlink="http://www.w3.org/1999/xlink" width="539.501" height="783.852" viewBox="0 0 539.501 783.852">
  <defs>
    <linearGradient id="linear-gradient" y1="0.5" x2="1" y2="0.5" gradientUnits="objectBoundingBox">
      <stop offset="0" stop-color="#9cc229"/>
      <stop offset="1" stop-color="#7bb62d"/>
    </linearGradient>
  </defs>
  <path id="Path_2584" data-name="Path 2584" d="M-2128.414,1623.024v-25.737c1.639-6.909.935-13.979,2.065-20.924,4.46-27.408,17.273-52.385,32.266-76.645,10.395-16.819,23.189-32.475,35.807-48.148,19.4-24.1,45.36-42.2,75.714-56.107,47.342-21.69,98.635-32.29,151.736-36.736,46.457-3.891,93.154-2.228,139.785-1.551,30.207.439,60,3.6,89.8,7.168,11.546,1.382,12.327,2.294,12.327,12.062q.005,373.077,0,746.153c0,10.065-.554,10.76-12.788,12.8-35.1,5.85-70.557,5.035-106.055,4-43.865-1.285-81.109-15.959-113.409-39.786-30.829-22.74-50.407-51.9-63.632-84.089a295.64,295.64,0,0,1-22.625-112.133c-.051-13.854.455-27.7,1.158-41.562,1.147-22.649-9.833-42.217-26.643-59.608-24.207-25.046-55.591-42.232-89.314-56.686-16.622-7.125-33.377-13.736-47.661-24.24-23.6-17.347-41.285-37.9-52.089-62.615-4.1-9.372-4.735-19.173-5.542-28.973C-2127.7,1627.444-2126.747,1625.106-2128.414,1623.024Z" transform="translate(-1588.913 2140.09) rotate(180)" opacity="0.27" fill="url(#linear-gradient)"/>
</svg>
