<svg id="Google_Play" data-name="Google Play" xmlns="http://www.w3.org/2000/svg" xmlns:xlink="http://www.w3.org/1999/xlink" width="266.494" height="78.44" viewBox="0 0 266.494 78.44">
  <defs>
    <linearGradient id="linear-gradient" x1="0.808" y1="0.5" x2="-1.573" y2="0.5" gradientUnits="objectBoundingBox">
      <stop offset="0" stop-color="gold"/>
      <stop offset="0.075" stop-color="#fece00"/>
      <stop offset="0.48" stop-color="#fca704"/>
      <stop offset="0.803" stop-color="#fa8e07"/>
      <stop offset="1" stop-color="#fa8608"/>
    </linearGradient>
    <linearGradient id="linear-gradient-2" x1="0.862" y1="0.178" x2="-0.501" y2="1.948" gradientUnits="objectBoundingBox">
      <stop offset="0" stop-color="#e82b36"/>
      <stop offset="1" stop-color="#b4005a"/>
    </linearGradient>
    <linearGradient id="linear-gradient-3" x1="-0.508" y1="-0.956" x2="0.606" y2="0.489" gradientUnits="objectBoundingBox">
      <stop offset="0" stop-color="#2f8e5b"/>
      <stop offset="0.39" stop-color="#4ea157"/>
      <stop offset="0.768" stop-color="#67b054"/>
      <stop offset="1" stop-color="#70b653"/>
    </linearGradient>
  </defs>
  <g id="Group_4444" data-name="Group 4444">
    <g id="Group_4440" data-name="Group 4440">
      <rect id="Rectangle_3854" data-name="Rectangle 3854" width="264.517" height="76.462" rx="7.382" transform="translate(0.989 0.99)"/>
      <path id="Path_2594" data-name="Path 2594" d="M-80.84,202.581H-327.276a10.041,10.041,0,0,1-10.03-10.028V134.172a10.041,10.041,0,0,1,10.03-10.031H-80.84a10.041,10.041,0,0,1,10.028,10.031v58.381A10.04,10.04,0,0,1-80.84,202.581ZM-327.276,126.12a8.06,8.06,0,0,0-8.051,8.052v58.381a8.06,8.06,0,0,0,8.051,8.051H-80.84a8.06,8.06,0,0,0,8.051-8.051V134.172a8.06,8.06,0,0,0-8.051-8.052Z" transform="translate(337.306 -124.141)" fill="#96999c"/>
    </g>
    <g id="Group_4442" data-name="Group 4442" transform="translate(19.873 14.138)">
      <path id="Path_2595" data-name="Path 2595" d="M-217.742,160.871a8.256,8.256,0,0,0-8.408,8.376,8.276,8.276,0,0,0,8.408,8.378,8.277,8.277,0,0,0,8.409-8.378A8.257,8.257,0,0,0-217.742,160.871Zm0,13.454a4.846,4.846,0,0,1-4.728-5.077,4.828,4.828,0,0,1,4.728-5.077,4.828,4.828,0,0,1,4.728,5.077A4.846,4.846,0,0,1-217.742,174.324Zm-18.343-13.454a8.257,8.257,0,0,0-8.409,8.376,8.277,8.277,0,0,0,8.409,8.378,8.276,8.276,0,0,0,8.408-8.378A8.256,8.256,0,0,0-236.085,160.871Zm0,13.454a4.846,4.846,0,0,1-4.728-5.077,4.828,4.828,0,0,1,4.728-5.077,4.828,4.828,0,0,1,4.728,5.077A4.846,4.846,0,0,1-236.085,174.324Zm-21.821-10.883v3.554h8.5a7.414,7.414,0,0,1-1.935,4.474,8.707,8.707,0,0,1-6.569,2.6,9.332,9.332,0,0,1-9.329-9.456,9.332,9.332,0,0,1,9.329-9.455,9.063,9.063,0,0,1,6.41,2.537l2.507-2.507a12.4,12.4,0,0,0-8.916-3.586,13.192,13.192,0,0,0-13.2,13.01,13.192,13.192,0,0,0,13.2,13.01,11.894,11.894,0,0,0,9.076-3.649,11.744,11.744,0,0,0,3.077-8.314,11.651,11.651,0,0,0-.19-2.22Zm89.241,2.76c-.7-1.872-2.824-5.331-7.171-5.331-4.316,0-7.9,3.395-7.9,8.376a8.2,8.2,0,0,0,8.314,8.378,8.332,8.332,0,0,0,6.98-3.713l-2.856-1.9a4.784,4.784,0,0,1-4.124,2.316,4.261,4.261,0,0,1-4.062-2.539l11.2-4.633Zm-11.423,2.792a4.594,4.594,0,0,1,4.378-4.886,3.246,3.246,0,0,1,3.111,1.777Zm-9.107,8.123h3.681V152.493H-189.2Zm-6.029-14.374h-.127a5.806,5.806,0,0,0-4.411-1.871,8.331,8.331,0,0,0-8.027,8.408,8.3,8.3,0,0,0,8.027,8.346,5.712,5.712,0,0,0,4.411-1.9h.127v1.206c0,3.2-1.713,4.918-4.475,4.918a4.635,4.635,0,0,1-4.22-2.982l-3.2,1.332a7.981,7.981,0,0,0,7.425,4.95c4.316,0,7.965-2.539,7.965-8.727V161.378h-3.49Zm-4.22,11.582a4.808,4.808,0,0,1-4.666-5.045,4.846,4.846,0,0,1,4.666-5.109c2.507,0,4.474,2.158,4.474,5.109C-194.972,172.2-196.938,174.324-199.445,174.324Zm48.021-21.831h-8.806v24.623h3.675v-9.329h5.131c4.074,0,8.079-2.949,8.079-7.646S-147.35,152.493-151.424,152.493Zm.1,11.868h-5.227v-8.44h5.227a4.267,4.267,0,0,1,4.308,4.22A4.289,4.289,0,0,1-151.329,164.361Zm22.713-3.535c-2.661,0-5.416,1.172-6.558,3.769l3.264,1.362a3.483,3.483,0,0,1,3.358-1.805c1.9,0,3.833,1.14,3.865,3.167v.253a8.133,8.133,0,0,0-3.833-.95c-3.516,0-7.1,1.932-7.1,5.544,0,3.3,2.883,5.418,6.114,5.418a5.184,5.184,0,0,0,4.688-2.408h.127v1.9h3.548v-9.441C-121.14,163.264-124.4,160.825-128.616,160.825Zm-.443,13.494c-1.2,0-2.883-.6-2.883-2.09,0-1.9,2.09-2.629,3.9-2.629a6.548,6.548,0,0,1,3.358.824A4.456,4.456,0,0,1-129.059,174.319Zm20.844-12.956-4.213,10.676h-.127l-4.371-10.676h-3.96l6.558,14.921-3.739,8.3h3.833l10.105-23.221Zm-33.1,15.753h3.675V152.493h-3.675Z" transform="translate(332.302 -132.111)" fill="#fff"/>
      <g id="Group_4441" data-name="Group 4441">
        <path id="Path_2596" data-name="Path 2596" d="M-320.167,136.351a3.935,3.935,0,0,0-.911,2.765V182.64a3.939,3.939,0,0,0,.911,2.765l.145.142,24.382-24.382v-.576l-24.382-24.382Z" transform="translate(321.078 -135.569)" fill="#40bff2"/>
        <path id="Path_2597" data-name="Path 2597" d="M-292.179,166.315l-8.127-8.13v-.576l8.129-8.129.184.1,9.629,5.472c2.749,1.563,2.749,4.12,0,5.683l-9.63,5.47Z" transform="translate(325.744 -132.588)" fill="url(#linear-gradient)"/>
        <path id="Path_2598" data-name="Path 2598" d="M-287.5,164.666l-8.311-8.313-24.527,24.528c.906.96,2.4,1.079,4.089.12l28.749-16.335" transform="translate(321.245 -131.044)" fill="url(#linear-gradient-2)"/>
        <path id="Path_2599" data-name="Path 2599" d="M-287.495,152.682l-28.75-16.335c-1.686-.958-3.183-.839-4.089.121L-295.807,161Z" transform="translate(321.245 -135.686)" fill="url(#linear-gradient-3)"/>
      </g>
    </g>
    <g id="Group_4443" data-name="Group 4443" transform="translate(81.886 13.739)">
      <path id="Path_2600" data-name="Path 2600" d="M-261.794,137.934a4.211,4.211,0,0,0-2.792-1.076,4.345,4.345,0,0,0-4.289,4.456,4.33,4.33,0,0,0,4.289,4.439c2.086,0,3.6-1.21,3.7-3.128h-3.3v-1.363h5.078c0,4.072-2.17,5.988-5.483,5.988a5.854,5.854,0,0,1-5.852-5.937,5.858,5.858,0,0,1,5.852-5.954,5.732,5.732,0,0,1,3.919,1.531Z" transform="translate(270.439 -135.36)" fill="#fff"/>
      <path id="Path_2601" data-name="Path 2601" d="M-252.575,135.47v1.463h-5.3v3.7h4.625V142.1h-4.625v3.5h5.465v1.462h-7.029V135.47Z" transform="translate(272.91 -135.335)" fill="#fff"/>
      <path id="Path_2602" data-name="Path 2602" d="M-243.973,135.47v1.479h-3.515v10.108h-1.581V136.949h-3.515V135.47Z" transform="translate(274.45 -135.335)" fill="#fff"/>
      <path id="Path_2603" data-name="Path 2603" d="M-239.138,135.47v11.587H-240.7V135.47Z" transform="translate(277.118 -135.335)" fill="#fff"/>
      <path id="Path_2604" data-name="Path 2604" d="M-229.139,135.47v1.479h-3.515v10.108h-1.581V136.949h-3.515V135.47Z" transform="translate(277.782 -135.335)" fill="#fff"/>
      <path id="Path_2605" data-name="Path 2605" d="M-220.633,135.36a5.875,5.875,0,0,1,5.885,5.954,5.872,5.872,0,0,1-5.885,5.937,5.855,5.855,0,0,1-5.854-5.937A5.859,5.859,0,0,1-220.633,135.36Zm0,10.377a4.319,4.319,0,0,0,4.3-4.423,4.334,4.334,0,0,0-4.3-4.44,4.33,4.33,0,0,0-4.289,4.44A4.316,4.316,0,0,0-220.633,145.737Z" transform="translate(280.311 -135.36)" fill="#fff"/>
      <path id="Path_2606" data-name="Path 2606" d="M-208.091,147.057l-5.281-8.728v8.728h-1.564V135.47h1.548l5.229,8.662V135.47h1.565v11.587Z" transform="translate(282.906 -135.335)" fill="#fff"/>
    </g>
  </g>
</svg>
