<svg xmlns="http://www.w3.org/2000/svg" xmlns:xlink="http://www.w3.org/1999/xlink" width="117.333" height="152.372" viewBox="0 0 117.333 152.372">
  <defs>
    <linearGradient id="linear-gradient" y1="0.5" x2="1" y2="0.5" gradientUnits="objectBoundingBox">
      <stop offset="0" stop-color="#9cc229"/>
      <stop offset="1" stop-color="#7bb62d"/>
    </linearGradient>
  </defs>
  <g id="Group_4423" data-name="Group 4423" transform="translate(-498.099 -422.714)">
    <g id="Group_4421" data-name="Group 4421" transform="translate(498.099 529.539)">
      <path id="Path_2585" data-name="Path 2585" d="M506.89,1006.552v34.623H498.1V999.025h11.467a15.789,15.789,0,0,1,10.8,3.7,12.111,12.111,0,0,1,4.224,9.544q0,6.5-6.366,10.176l10.46,19.449h-8.036l-12.316-22.038.3-1.867h1.084a6.376,6.376,0,0,0,4.365-1.505,5.165,5.165,0,0,0,1.716-4.094,5.447,5.447,0,0,0-1.765-4.245,6.56,6.56,0,0,0-4.574-1.6Z" transform="translate(-498.099 -996.381)" fill="url(#linear-gradient)"/>
      <path id="Path_2586" data-name="Path 2586" d="M694.07,998.715a4.789,4.789,0,0,1-3.432,1.385,4.738,4.738,0,0,1-3.432-1.415,4.727,4.727,0,0,1,0-6.8,4.87,4.87,0,0,1,6.864,0,4.592,4.592,0,0,1,1.445,3.4A4.689,4.689,0,0,1,694.07,998.715Zm.542,12v23.53h-7.948v-28.18Z" transform="translate(-650.115 -989.448)" fill="url(#linear-gradient)"/>
      <path id="Path_2587" data-name="Path 2587" d="M972.131,1090.312a7.966,7.966,0,0,0,5.451-5.249l7.376-.262c-.19,6.057-5.366,10.854-10.7,12.48a15.645,15.645,0,0,1-11.893-.814,14.654,14.654,0,0,1-6.21-20.171,15.075,15.075,0,0,1,9.122-7.249,14.8,14.8,0,0,1,11.45,1.012,14.4,14.4,0,0,1,7.418,8.85,11.594,11.594,0,0,1,.476,2.184l-21.023,6.406a6.693,6.693,0,0,0,3.711,2.883A8.1,8.1,0,0,0,972.131,1090.312Zm-10.031-8.337,13.478-4.107a5.481,5.481,0,0,0-3.387-2.336,8.667,8.667,0,0,0-4.691.2,7.953,7.953,0,0,0-3.71,2.389A6.485,6.485,0,0,0,962.1,1081.975Z" transform="translate(-867.624 -1052.532)" fill="url(#linear-gradient)"/>
      <path id="Path_2588" data-name="Path 2588" d="M790.473,985.106v18.92a5.845,5.845,0,0,0-2.469-1.867,10.807,10.807,0,0,0-4.057-.632,13.815,13.815,0,0,0-5.572,1.132,14.533,14.533,0,0,0-7.644,7.659,14.314,14.314,0,0,0,0,11.158,14.451,14.451,0,0,0,3.087,4.542,14.75,14.75,0,0,0,4.557,3.072,14.312,14.312,0,0,0,11.158,0,14.425,14.425,0,0,0,7.63-7.615,13.819,13.819,0,0,0,1.132-5.572V990.941Zm-.516,33.327a6.651,6.651,0,0,1-1.4,2.058,6.415,6.415,0,0,1-2.077,1.382,6.525,6.525,0,0,1-2.549.5,6.344,6.344,0,0,1-2.505-.5,6.634,6.634,0,0,1-2.077-1.382,6.525,6.525,0,0,1-1.415-2.058,6.461,6.461,0,0,1,0-5.057,6.53,6.53,0,0,1,1.415-2.058,6.638,6.638,0,0,1,2.077-1.382,6.352,6.352,0,0,1,2.505-.5,6.534,6.534,0,0,1,2.549.5,6.419,6.419,0,0,1,2.077,1.382,6.656,6.656,0,0,1,1.4,2.058,6.457,6.457,0,0,1,0,5.057Z" transform="translate(-718.027 -985.106)" fill="url(#linear-gradient)"/>
    </g>
    <g id="Group_4422" data-name="Group 4422" transform="translate(514.856 422.714)">
      <path id="Path_2589" data-name="Path 2589" d="M645.7,494.318c15.869-6.089,26.73-23.485,24.029-40.193a36.957,36.957,0,0,0-36.878-31.408q-18.206-.008-36.413,0v0H586.316v97.349h13.125v-.015h0v-.023l-.018-.485c-.2-6.327-1.024-67.136,40.268-88.707,0,0-24.119,45.967-4,89.23,0,0,8.491-.036,29.422-.051.59,0,.552.015,2.115-.01-.926-1.13-2.082-2.566-3-3.662C658.125,509.04,646.1,494.684,645.7,494.318Z" transform="translate(-586.316 -422.714)" fill="url(#linear-gradient)"/>
      <path id="Path_2590" data-name="Path 2590" d="M729.451,862.591v-.01l-1.894.146v.009a101.574,101.574,0,0,0,1.994,13.65l0,.009,1.848-.4.008,0,0-.01A99.953,99.953,0,0,1,729.451,862.591Z" transform="translate(-700.729 -779.029)" fill="url(#linear-gradient)"/>
      <path id="Path_2591" data-name="Path 2591" d="M728.306,745.409a99.035,99.035,0,0,1,1.442-13.458l0-.01-1.871-.331,0,.01a101.3,101.3,0,0,0-1.47,13.716v.01l1.9.072Z" transform="translate(-699.797 -672.937)" fill="url(#linear-gradient)"/>
      <path id="Path_2592" data-name="Path 2592" d="M752.359,605.371l0,.01a111.02,111.02,0,0,0-4.675,12.962l0,0,0,.019,1.814.528.011,0v-.012a109.179,109.179,0,0,1,4.6-12.745l0-.009-1.734-.751Z" transform="translate(-717.027 -570.676)" fill="url(#linear-gradient)"/>
      <path id="Path_2593" data-name="Path 2593" d="M800.233,495.663l.006-.009a67.666,67.666,0,0,1,8.365-14.359,48.022,48.022,0,0,0-10.019,13.427l-.008-.008v.025l1.649.919Z" transform="translate(-758.259 -470.167)" fill="url(#linear-gradient)"/>
    </g>
  </g>
</svg>
