<svg xmlns="http://www.w3.org/2000/svg" xmlns:xlink="http://www.w3.org/1999/xlink" width="72.676" height="94.379" viewBox="0 0 72.676 94.379">
  <defs>
    <linearGradient id="linear-gradient" y1="0.5" x2="1" y2="0.5" gradientUnits="objectBoundingBox">
      <stop offset="0" stop-color="#9cc229"/>
      <stop offset="1" stop-color="#7bb62d"/>
    </linearGradient>
  </defs>
  <g id="Group_4424" data-name="Group 4424" transform="translate(-498.099 -422.714)">
    <g id="Group_4421" data-name="Group 4421" transform="translate(498.099 488.881)">
      <path id="Path_2585" data-name="Path 2585" d="M503.544,1003.687v21.445H498.1V999.025h7.1a9.78,9.78,0,0,1,6.691,2.294,7.5,7.5,0,0,1,2.617,5.911q0,4.028-3.943,6.3l6.479,12.047h-4.977l-7.629-13.65.186-1.156h.671a3.949,3.949,0,0,0,2.7-.932,3.2,3.2,0,0,0,1.063-2.536,3.374,3.374,0,0,0-1.093-2.629,4.063,4.063,0,0,0-2.833-.988Z" transform="translate(-498.099 -997.387)" fill="#040f2c"/>
      <path id="Path_2586" data-name="Path 2586" d="M690.908,995.576a2.966,2.966,0,0,1-2.126.858,2.935,2.935,0,0,1-2.126-.876,2.928,2.928,0,0,1,0-4.215,3.016,3.016,0,0,1,4.252,0,2.844,2.844,0,0,1,.9,2.107A2.9,2.9,0,0,1,690.908,995.576Zm.336,7.43v14.574H686.32v-17.455Z" transform="translate(-663.682 -989.835)" fill="#040f2c"/>
      <path id="Path_2587" data-name="Path 2587" d="M965.335,1081.95a4.934,4.934,0,0,0,3.376-3.251l4.569-.162c-.118,3.752-3.324,6.723-6.629,7.73a9.691,9.691,0,0,1-7.367-.5,9.077,9.077,0,0,1-3.846-12.494,9.337,9.337,0,0,1,5.65-4.49,9.169,9.169,0,0,1,7.092.627,8.917,8.917,0,0,1,4.595,5.481,7.177,7.177,0,0,1,.3,1.353l-13.022,3.968a4.146,4.146,0,0,0,2.3,1.786A5.013,5.013,0,0,0,965.335,1081.95Zm-6.213-5.164,8.348-2.544a3.4,3.4,0,0,0-2.1-1.447,5.367,5.367,0,0,0-2.906.125,4.927,4.927,0,0,0-2.3,1.48A4.017,4.017,0,0,0,959.121,1076.787Z" transform="translate(-900.603 -1058.55)" fill="#040f2c"/>
      <path id="Path_2588" data-name="Path 2588" d="M782.528,985.106v11.719a3.62,3.62,0,0,0-1.53-1.156,6.7,6.7,0,0,0-2.513-.391,8.557,8.557,0,0,0-3.451.7,9,9,0,0,0-4.735,4.744,8.866,8.866,0,0,0,0,6.911,8.951,8.951,0,0,0,1.912,2.814,9.137,9.137,0,0,0,2.823,1.9,8.864,8.864,0,0,0,6.911,0,8.935,8.935,0,0,0,4.726-4.717,8.56,8.56,0,0,0,.7-3.451V988.72Zm-.319,20.643a4.121,4.121,0,0,1-.867,1.275,3.975,3.975,0,0,1-1.287.856,4.042,4.042,0,0,1-1.579.31,3.93,3.93,0,0,1-1.552-.31,4.11,4.11,0,0,1-1.287-.856,4.042,4.042,0,0,1-.876-1.275,4,4,0,0,1,0-3.132,4.044,4.044,0,0,1,.876-1.275,4.111,4.111,0,0,1,1.287-.856,3.934,3.934,0,0,1,1.552-.31,4.047,4.047,0,0,1,1.579.31,3.976,3.976,0,0,1,1.287.856,4.123,4.123,0,0,1,.867,1.275,4,4,0,0,1,0,3.132Z" transform="translate(-737.655 -985.106)" fill="#040f2c"/>
    </g>
    <g id="Group_4422" data-name="Group 4422" transform="translate(498.099 422.714)">
      <path id="Path_2589" data-name="Path 2589" d="M623.1,467.066c9.829-3.771,16.557-14.547,14.883-24.9a22.891,22.891,0,0,0-22.842-19.454q-11.277,0-22.554,0v0h-6.267v60.3h8.13V483h0v-.014l-.011-.3c-.124-3.919-.634-41.584,24.942-54.945,0,0-14.939,28.472-2.475,55.269,0,0,5.259-.022,18.224-.032.365,0,.342.009,1.31-.006-.574-.7-1.29-1.59-1.857-2.268C630.794,476.184,623.347,467.292,623.1,467.066Z" transform="translate(-586.316 -422.714)" fill="url(#linear-gradient)"/>
      <path id="Path_2590" data-name="Path 2590" d="M728.73,862.587v-.006l-1.173.091v.006a62.914,62.914,0,0,0,1.235,8.454v.006l1.145-.247h0v-.006A61.921,61.921,0,0,1,728.73,862.587Z" transform="translate(-710.94 -810.829)" fill="url(#linear-gradient)"/>
      <path id="Path_2591" data-name="Path 2591" d="M727.583,740.157a61.348,61.348,0,0,1,.893-8.336v-.006l-1.159-.2v.006a62.741,62.741,0,0,0-.911,8.5v.006l1.177.045Z" transform="translate(-709.925 -695.268)" fill="url(#linear-gradient)"/>
      <path id="Path_2592" data-name="Path 2592" d="M750.577,605.371l0,.006a68.759,68.759,0,0,0-2.9,8.029h0v.012l1.124.327.007,0v-.007a67.636,67.636,0,0,1,2.847-7.895l0-.006-1.074-.465Z" transform="translate(-728.692 -583.881)" fill="url(#linear-gradient)"/>
      <path id="Path_2593" data-name="Path 2593" d="M799.6,490.194l0-.006a41.912,41.912,0,0,1,5.181-8.894,29.742,29.742,0,0,0-6.206,8.317l0,0v.015l1.021.569Z" transform="translate(-773.604 -474.402)" fill="url(#linear-gradient)"/>
    </g>
  </g>
</svg>
