<svg xmlns="http://www.w3.org/2000/svg" width="83.333" height="83.333" viewBox="0 0 83.333 83.333">
  <g id="Group_4411" data-name="Group 4411" transform="translate(-268.223 -875.98)">
    <path id="Path_427" data-name="Path 427" d="M83.333,41.667A41.667,41.667,0,1,1,41.667,0,41.667,41.667,0,0,1,83.333,41.667Zm-24.51,0L31.863,24.51V58.824Zm-9.118,0L36.765,33.431V49.9ZM41.667,78.431A36.765,36.765,0,1,0,4.9,41.667,36.765,36.765,0,0,0,41.667,78.431Z" transform="translate(268.223 875.98)" fill="#f3ffd9" fill-rule="evenodd"/>
    <path id="Path_428" data-name="Path 428" d="M74.529,37.765A36.765,36.765,0,1,1,37.765,1,36.765,36.765,0,0,1,74.529,37.765Zm-19.608,0L27.961,54.922V20.608Z" transform="translate(272.125 879.882)" fill="#83ba31" fill-rule="evenodd"/>
  </g>
</svg>
